<svg id="OXc-wGxYTO" viewBox="0 0 312.5 314.5557098610986" height="314.5557098610986" width="312.5" style="width: 312.5px; height: 314.556px; position: absolute; top: 50%; left: 50%; z-index: 0; cursor: pointer; overflow: visible; transform: translate(-50%, -50%) scale(0.498481);"><defs id="SvgjsDefs2199"><linearGradient id="SvgjsLinearGradient2208"><stop id="SvgjsStop2209" stop-color="#616161" offset="0"></stop><stop id="SvgjsStop2210" stop-color="#e6e7e8" offset="0.5"></stop><stop id="SvgjsStop2211" stop-color="#616161" offset="1"></stop></linearGradient><linearGradient id="SvgjsLinearGradient2212"><stop id="SvgjsStop2213" stop-color="#616161" offset="0"></stop><stop id="SvgjsStop2214" stop-color="#e6e7e8" offset="0.5"></stop><stop id="SvgjsStop2215" stop-color="#616161" offset="1"></stop></linearGradient><linearGradient id="SvgjsLinearGradient2216"><stop id="SvgjsStop2217" stop-color="#616161" offset="0"></stop><stop id="SvgjsStop2218" stop-color="#e6e7e8" offset="0.5"></stop><stop id="SvgjsStop2219" stop-color="#616161" offset="1"></stop></linearGradient><linearGradient id="SvgjsLinearGradient2220"><stop id="SvgjsStop2221" stop-color="#616161" offset="0"></stop><stop id="SvgjsStop2222" stop-color="#e6e7e8" offset="0.5"></stop><stop id="SvgjsStop2223" stop-color="#616161" offset="1"></stop></linearGradient></defs><g id="SvgjsG2200" featurekey="rootContainer" transform="matrix(1.6911403075034772,0,0,1.6911403075034772,0,-0.003822346396760476)" fill="url(#SvgjsLinearGradient2208)"><path xmlns="http://www.w3.org/2000/svg" d="M27.983 157.03c-.229-.339-.566-.793-.807-1.141.235.361.5.733.807 1.141zM4.683 107.878l.737 2.899c.321 4.445 1.616 8.985 3.339 13.311l-.321-2.065c-.455-1.248-.655-1.961-.77-2.046-.066-.066-.067.191.039.762-1.095-5-2.027-9.749-2.751-14.651-.142.348-.378.31-.273 1.79zM4.53 102.939l-.003.111.428 3.037c.017-.025.03-.076.046-.117l-.471-3.031z"></path><path xmlns="http://www.w3.org/2000/svg" d="M125.305 180.632l2.14-.828c1.441-.523 2.834-1.169 4.24-1.796a89.147 89.147 0 0 0 15.754-9.223c8.046-5.915 15.007-13.019 20.571-21.02 5.631-7.96 9.858-16.8 12.735-26.093 5.643-18.619 5.519-39.248-1.271-59.004-7.467-21.375-22.25-39.15-40.75-50.155a88.724 88.724 0 0 0-14.361-6.919c-1.246-.435-2.474-.92-3.73-1.308l-3.772-1.139-3.814-.942c-1.271-.307-2.562-.513-3.84-.772A92.651 92.651 0 0 0 93.706.004C88.524-.03 83.364.436 78.26 1.256l-1.912.329c-.639.102-1.275.219-1.904.373l-3.79.855-3.749 1.04c-1.251.347-2.471.8-3.709 1.195a97.388 97.388 0 0 0-14.362 6.284c-9.278 4.997-17.84 11.635-25.396 19.672-2.922 3.069-6.091 7.155-9.102 11.873a91.038 91.038 0 0 0-7.949 15.747c-2.195 5.611-3.793 11.426-4.808 16.85C.523 80.897.165 85.935 0 90.012c.037 1.37.072 2.609.143 3.725.109 1.116.221 2.11.337 2.993.201 1.769.548 3.087.831 4.056.582 1.937 1.104 2.47 1.544 2.316.88-.321 1.444-3.343 1.493-3.832.444-3.247.812-6.255 1.18-9.364.156-1.555.428-3.127.601-4.769.222-1.637.511-3.331.778-5.127.685-3.568 1.468-7.541 2.949-12.042a77.254 77.254 0 0 1 6.311-14.233c-.334.587-.633 1.102-.892 1.54-.366.633-.62 1.132-.834 1.479-.415.697-.575.828-.519.499.061-.326.313-1.124.78-2.251.508-1.106 1.148-2.584 2.026-4.239 1.729-3.325 4.328-7.402 7.395-11.229.79-.938 1.536-1.919 2.376-2.808.833-.895 1.656-1.784 2.482-2.634.862-.819 1.71-1.614 2.537-2.371.82-.764 1.695-1.415 2.491-2.061 4.72-3.62 9.981-7.44 15.965-10.789 1.504-.821 3.001-1.698 4.589-2.451.789-.386 1.564-.809 2.372-1.178l2.441-1.097a36.112 36.112 0 0 1 2.491-1.047l2.532-1.009 2.597-.895 1.304-.454 1.329-.391 2.67-.785c.9-.235 1.811-.438 2.718-.662 1.808-.485 3.669-.758 5.514-1.127 3.718-.574 7.486-1.021 11.257-1.089 3.769-.163 7.528.083 11.221.454 1.835.279 3.677.456 5.466.861l2.681.545 2.623.687 1.31.342 1.304.403 2.645.806 2.66.934 1.352.472 1.343.542c3.63 1.378 7.285 3.177 11.017 5.305 19.107 11.478 33.218 29.389 39.781 50.132a90.291 90.291 0 0 1 4.012 32.602c-.686 11.153-3.564 22.415-8.801 32.918-5.51 11.128-12.028 20.167-19.705 27.471-1.4 1.334-2.956 2.539-4.491 3.756-.769.606-1.589 1.144-2.376 1.711-.793.561-1.579 1.121-2.397 1.611l-2.389 1.497c-.795.473-1.598.901-2.368 1.341-1.527.904-3.06 1.619-4.444 2.351a104.836 104.836 0 0 1-12.79 5.354 104.644 104.644 0 0 1-12.205 3.209c8.975-1.655 15.399-3.714 24.498-8.151 2.984-1.578 2.055-.842-.136.574-1.126.644-2.563 1.475-3.999 2.22-1.457.693-2.876 1.387-3.923 1.82-.892.385-2.124.643-3.346.898-1.226.25-2.471.402-3.374.753l-1.497.436-1.491.381-2.964.797c-2.005.443-4.042.994-6.286 1.318-1.914.381-1.759-.299-2.712-.15-6.085.727-10.902 1.426-14.852.924l-2.188-.26c-.712-.094-1.404-.235-2.086-.347-1.364-.237-2.683-.449-3.964-.772l-2.456-.505c-.824-.174-1.649-.397-2.511-.582-1.076-.197-2.198-.393-3.297-.68-7.955-1.794-16.87-5.311-24.414-9.955l.066.116c4.075 2.556 8.177 4.843 12.584 7.158-.295-.185-.404-.298-.333-.301.13-.015.817.249 2.06.712l1.758 1.083c-4.404-1.447-8.672-3.39-12.233-5.99l-2.673-1.309c-1.18-.885-1.006-1.029-1.163-1.352-.844-.552-1.734-1.06-2.572-1.65.378.4 1.031.916 1.77 1.51.745.584 1.569 1.258 2.377 1.835l3.055 2.098c11.553 6.4 23.744 9.945 35.831 11.02.942-.071 1.598-.125 2.845-.005.938.149 1.892.256 2.838.336.887.052 1.774.033 2.659.02l2.648-.033c.615-.025 1.234-.113 1.863-.17l.051-.007c.988-.149.684-.233.066-.291a28.331 28.331 0 0 1-1.463-.091c.427.027 1.024.047 1.463.091.837.028 1.77.03 2.858-.008a139.13 139.13 0 0 1 2.047-.284c-.519.077-1.045.158-1.574.24-.157.015-.322.032-.474.044l-2.358.243-.028.003h.007l-.596.061-.857.124c2.022-.137 4.043-.217 6.044-.493 1.001-.127 2.009-.205 3.004-.371l2.985-.5a29.793 29.793 0 0 0 2.474-.57c2.847-.687 5.596-1.626 7.434-1.8l2.061-.679-.415.076.792-.201c.718-.252 1.454-.461 2.165-.742zm20.262-11.197l4.091-2.674c-1.352 1.317-2.77 2.32-4.116 3.199-.667.447-1.331.844-2 1.181a70.11 70.11 0 0 1-1.927.973c1.17-.852 2.585-1.713 3.952-2.679z"></path><path xmlns="http://www.w3.org/2000/svg" d="M58.888 177.982c.224.141.553.322 1.01.535-.344-.179-.671-.357-1.01-.535zM19.272 158.767c2.418 4.979 5.726 7.287 10.916 9.1 5.014 1.751 8.945 2.042 13.705-.097 1.486 1.156 3.237 2.895 4.694 3.661 1.019.528 2.419 1.281 3.899 1.964 1.504.638 3.014 1.346 4.261 1.767 2.479.871 3.635 1.164.544-.244-4.626-2.174-8.312-4.268-11.752-6.504-.412-.277-.82-.554-1.227-.833l.087-.039c-2.444-4.893-7.029-8.306-12.16-9.717a92.218 92.218 0 0 1-1.81-1.724 20.09 20.09 0 0 0 2.248-.127c-1.047-7.914-7.416-14.342-15-16.09-.188-.355-.372-.712-.566-1.063.178.351.363.705.545 1.057a17.984 17.984 0 0 0-5.882-.384c.668 5.498 3.045 8.757 7.363 12.16 2.696 2.124 5.159 3.525 7.966 4.125.025.037.046.07.074.109-.024-.036-.045-.072-.07-.108 1.024.218 2.103.315 3.247.317.362.354.723.705 1.097 1.074.212.196.304.361.371.528a19.967 19.967 0 0 0-3.759-.569l-.078-.099.064.099c-.124-.007-.249-.002-.374-.006a23.76 23.76 0 0 1-1.307-1.368c.227.263.439.541.665.773l.642.595c-2.858-.104-5.74.403-8.403 1.643zM13.963 132.726c2.976 4.624 5.992 7.302 11.397 8.494 1.985-9.798-4.661-20.13-14.4-22.388-1.16 5.414.031 9.27 3.003 13.894zM23.249 124.886c5.065-8.615 2.145-20.551-6.329-25.854-2.858 4.743-2.993 8.772-1.685 14.114 1.309 5.34 3.288 8.855 8.014 11.74z"></path></g><g id="SvgjsG2201" featurekey="nameFeature-0" transform="matrix(0.738922699052263,0,0,0.738922699052263,55.124485694929646,100.60583909714687)" fill="url(#SvgjsLinearGradient2212)"><path d="M44.4 12 c0.52 0 0.64 1.16 0.12 1.24 c-1.64 0.24 -2.84 0.84 -4.24 4.36 l-6.04 15.56 c-1.24 3.16 -1.92 5.24 -1.92 6.84 c0 0.24 -2.8 0.88 -2.92 0.6 l-6.28 -16.16 l-3.6 8.72 c-1.28 3.16 -1.88 5.32 -1.88 6.84 c0 0.24 -2.84 0.88 -2.96 0.6 l-9 -22.96 c-1.36 -3.56 -2.6 -4.12 -4.16 -4.36 c-0.52 -0.08 -0.4 -1.28 0.12 -1.28 l9.76 0 c0.52 0 0.64 1.2 0.12 1.28 c-1.64 0.36 -2.84 0.96 -1.56 4.32 l6.6 17.2 l4.24 -10.24 c0.88 -2.12 1 -3.44 -0.16 -6.44 c-1.4 -3.64 -2.44 -4.6 -3.48 -4.84 c-0.48 -0.12 -0.4 -1.28 0.12 -1.28 l7.12 0 c0.4 0 0.48 0.12 0.48 0.28 c0 0.48 -1.6 1.64 -0.16 5.32 l6.52 17.04 l6.6 -17.04 c1.32 -3.44 0.08 -3.96 -2 -4.32 c-0.44 -0.08 -0.32 -1.28 0.12 -1.28 l8.44 0 z M47.44 40.08 c-0.4 0.04 -0.56 -1.2 -0.24 -1.28 c2.36 -0.6 4.16 -0.96 4.16 -3.92 l0 -17.92 c0 -2.68 -1.64 -3.36 -3.4 -3.8 c-0.32 -0.08 -0.16 -1.28 0.24 -1.24 c2.92 0.24 7.2 0.24 10.16 0.24 c3.64 0 6.36 -0.16 9.52 -0.24 c0.92 0 0.92 0.64 0.72 1.52 l-1 3.8 c-0.12 0.52 -1.08 0.52 -1.24 0 c-0.56 -1.88 -1.84 -3.2 -6.92 -3.2 c-3 0 -3.92 0.72 -3.92 2.92 l0 6.64 c0 1.04 0.52 1.24 1.32 1.24 l0.76 0 c3.56 0 6.24 -0.24 8 -1.92 c0.36 -0.36 1.2 -0.28 0.88 0.48 l-2.36 5.04 c-0.28 0.68 -0.84 0.6 -1.28 0 c-0.96 -1.24 -3.04 -1.72 -5.56 -1.72 l-0.44 0 c-0.8 0 -1.32 0.2 -1.32 1.24 l0 6.92 c0 2.32 1.04 3.08 4.48 3.08 c6.48 0 8.56 -2.6 9.56 -4.28 c0.32 -0.52 1.28 -0.4 1.28 0.36 c0 2.2 -1.68 6 -4.12 6.04 c-1.92 -0.12 -4.48 -0.24 -7.92 -0.24 c-3.68 0 -7.68 -0.12 -11.36 0.24 z M111.24 38.72 c0.56 0.08 0.4 1.28 -0.08 1.28 l-9.96 0 c-0.52 0 -0.6 -1.2 -0.12 -1.28 c1.52 -0.24 3.04 -0.84 1.56 -4.32 l-0.6 -1.4 c-0.36 -0.92 -1.24 -0.96 -2.52 -0.96 l-8.32 0 c-1.2 0 -2.08 0.04 -2.44 0.96 l-0.56 1.4 c-1.48 3.56 0.04 4.04 2.04 4.32 c0.48 0.08 0.4 1.28 -0.12 1.28 l-8.44 0 c-0.52 0 -0.64 -1.2 -0.12 -1.28 c1.68 -0.24 2.64 -0.88 4.12 -4.32 l6.76 -15.4 c1.56 -3.52 2.04 -5.28 2.04 -6.8 c0 -0.24 2.84 -0.88 2.96 -0.6 l9.76 22.76 c1.48 3.48 2.44 4.12 4.04 4.36 z M99.52 30 c0.6 0 1.28 -0.08 1.04 -0.6 l-5.12 -12.16 l-5.12 12.16 c-0.24 0.52 0.4 0.6 1 0.6 l8.2 0 z M142.68 39.08 c0.32 0 0.28 1 0 1.12 c-2.24 0.84 -5.56 0.56 -7.76 -2.28 l-6.24 -8 c-1.68 -2.16 -3.88 -2.56 -6.8 -2.6 l0 7.84 c0 2.8 1.84 3.28 4.52 3.6 c0.28 0.04 0.08 1.24 -0.24 1.24 l-11.56 0 c-0.32 0 -0.56 -1.2 -0.24 -1.24 c1.96 -0.28 3.36 -1 3.36 -3.6 l0 -18.08 c0 -2.64 -1.4 -3.4 -3.36 -3.92 c-0.32 -0.08 -0.12 -1.28 0.24 -1.24 c1.6 0.2 3.36 0.24 4.56 0.24 c2.68 0 5.24 -0.24 7.08 -0.24 c5.72 0 9.92 2.4 9.92 7.4 c0 4.76 -3.96 7.04 -7 7.24 l0 0.2 c1.48 0 2.48 0.64 4.16 2.76 l6.16 7.68 c1.12 1.44 2.2 1.88 3.2 1.88 z M123.11999999999999 25.6 c6 0 8.64 -1.04 8.64 -5.24 c0 -4.36 -2.88 -6.52 -6.56 -6.52 c-2.44 0 -3.32 0.96 -3.32 3.24 l0 8.52 l1.24 0 z M144.92 40.08 c-0.4 0.04 -0.56 -1.2 -0.24 -1.28 c2.36 -0.6 4.16 -0.96 4.16 -3.92 l0 -17.92 c0 -2.68 -1.64 -3.36 -3.4 -3.8 c-0.32 -0.08 -0.16 -1.28 0.24 -1.24 c2.92 0.24 7.2 0.24 10.16 0.24 c3.64 0 6.36 -0.16 9.52 -0.24 c0.92 0 0.92 0.64 0.72 1.52 l-1 3.8 c-0.12 0.52 -1.08 0.52 -1.24 0 c-0.56 -1.88 -1.84 -3.2 -6.92 -3.2 c-3 0 -3.92 0.72 -3.92 2.92 l0 6.64 c0 1.04 0.52 1.24 1.32 1.24 l0.76 0 c3.56 0 6.24 -0.24 8 -1.92 c0.36 -0.36 1.2 -0.28 0.88 0.48 l-2.36 5.04 c-0.28 0.68 -0.84 0.6 -1.28 0 c-0.96 -1.24 -3.04 -1.72 -5.56 -1.72 l-0.44 0 c-0.8 0 -1.32 0.2 -1.32 1.24 l0 6.92 c0 2.32 1.04 3.08 4.48 3.08 c6.48 0 8.56 -2.6 9.56 -4.28 c0.32 -0.52 1.28 -0.4 1.28 0.36 c0 2.2 -1.68 6 -4.12 6.04 c-1.92 -0.12 -4.48 -0.24 -7.92 -0.24 c-3.68 0 -7.68 -0.12 -11.36 0.24 z M205.68 40.4 c-0.64 0 -0.96 -0.32 -1.4 -0.76 l-19.2 -20.72 l0 16.16 c0 2.68 1.56 3.16 3.64 3.68 c0.32 0.08 0.16 1.24 -0.24 1.24 l-8.96 0 c-0.36 0 -0.56 -1.12 -0.24 -1.24 c1.88 -0.52 3.32 -1 3.32 -3.68 l0 -15.84 c0 -2.56 -0.28 -4.24 -1.6 -5.72 c-0.24 -0.32 -0.6 -0.56 -0.6 -0.72 c0 -0.32 0.28 -0.8 0.72 -0.8 l2.8 0 c0.44 0 0.72 0.04 1 0.36 l18.84 20.56 l0 -16.04 c0 -2.8 -1.76 -3.16 -3.64 -3.64 c-0.32 -0.08 -0.16 -1.24 0.24 -1.24 l8.96 0 c0.36 0 0.56 1.16 0.24 1.24 c-1.8 0.48 -3.36 0.84 -3.36 3.64 l0 15.88 c0 2.52 0.08 5.4 0.48 6.84 c0.2 0.64 -0.52 0.8 -1 0.8 z M227.88 40.64 c-8.32 0 -14.36 -6.2 -14.36 -14.52 c0 -8.04 5.68 -14.76 14.44 -14.76 c8.36 0 14.36 6.2 14.36 14.48 c0 8.08 -5.64 14.8 -14.44 14.8 z M229.35999999999999 38.2 c3.68 0 8.84 -2.36 8.84 -10.28 c0 -8.28 -5.68 -14.12 -11.68 -14.12 c-3.72 0 -8.84 2.36 -8.84 10.24 c0 8.36 5.64 14.16 11.68 14.16 z M252.2 40 c-0.36 0 -0.6 -1.16 -0.28 -1.2 c2.72 -0.32 4.56 -0.92 4.56 -3.08 l0 -20.04 c0 -0.96 -0.32 -1.28 -1.28 -1.28 l-1.28 0 c-4.04 0 -5.84 0.68 -6.76 2.6 c-0.36 0.72 -1.56 0.6 -1.44 0 c0.32 -1.56 0.64 -2.64 0.88 -4.68 c0.08 -0.68 0.56 -0.64 1.24 -0.56 c1.52 0.16 3.52 0.24 10.92 0.24 s10.36 -0.08 11.88 -0.24 c0.72 -0.08 1.4 -0.12 1.16 0.56 c-0.56 1.84 -0.96 3.16 -1.2 4.68 c-0.12 0.68 -1.12 0.64 -1.24 0 c-0.4 -1.88 -2.04 -2.6 -5.6 -2.6 l-1.44 0 c-0.96 0 -1.52 0.32 -1.52 1.28 l0 20.04 c0 2.16 1.88 2.76 4.56 3.08 c0.32 0.04 0.08 1.2 -0.28 1.2 l-12.88 0 z"></path></g><g id="SvgjsG2202" featurekey="nameFeature-1" transform="matrix(1.342505839509138,0,0,1.342505839509138,54.67783369830799,125.74913540440232)" fill="url(#SvgjsLinearGradient2216)"><path d="M31 38.72 c0.56 0.08 0.4 1.28 -0.08 1.28 l-9.96 0 c-0.52 0 -0.6 -1.2 -0.12 -1.28 c1.52 -0.24 3.04 -0.84 1.56 -4.32 l-0.6 -1.4 c-0.36 -0.92 -1.24 -0.96 -2.52 -0.96 l-8.32 0 c-1.2 0 -2.08 0.04 -2.44 0.96 l-0.56 1.4 c-1.48 3.56 0.04 4.04 2.04 4.32 c0.48 0.08 0.4 1.28 -0.12 1.28 l-8.44 0 c-0.52 0 -0.64 -1.2 -0.12 -1.28 c1.68 -0.24 2.64 -0.88 4.12 -4.32 l6.76 -15.4 c1.56 -3.52 2.04 -5.28 2.04 -6.8 c0 -0.24 2.84 -0.88 2.96 -0.6 l9.76 22.76 c1.48 3.48 2.44 4.12 4.04 4.36 z M19.28 30 c0.6 0 1.28 -0.08 1.04 -0.6 l-5.12 -12.16 l-5.12 12.16 c-0.24 0.52 0.4 0.6 1 0.6 l8.2 0 z M33.76 40.08 c-0.4 0.04 -0.56 -1.2 -0.24 -1.28 c2.36 -0.6 4.16 -0.96 4.16 -3.92 l0 -18.04 c0 -2.8 -1.64 -3.36 -3.4 -3.6 c-0.32 -0.04 -0.08 -1.24 0.2 -1.24 l10.44 0 c0.32 0 0.52 1.2 0.24 1.24 c-1.72 0.2 -3.32 0.8 -3.32 3.6 l0 18.04 c0 2.32 1.04 3.08 4.48 3.08 c6.48 0 8.56 -2.6 9.56 -4.28 c0.32 -0.52 1.28 -0.4 1.28 0.36 c0 2.2 -1.68 6 -4.12 6.04 c-1.92 -0.12 -4.48 -0.24 -7.92 -0.24 c-3.68 0 -7.68 -0.12 -11.36 0.24 z M74.92 40.64 c-8.32 0 -14.36 -6.2 -14.36 -14.52 c0 -8.04 5.68 -14.76 14.44 -14.76 c8.36 0 14.36 6.2 14.36 14.48 c0 8.08 -5.64 14.8 -14.44 14.8 z M76.4 38.2 c3.68 0 8.84 -2.36 8.84 -10.28 c0 -8.28 -5.68 -14.12 -11.68 -14.12 c-3.72 0 -8.84 2.36 -8.84 10.24 c0 8.36 5.64 14.16 11.68 14.16 z M119.52000000000001 40.4 c-0.64 0 -0.96 -0.32 -1.4 -0.76 l-19.2 -20.72 l0 16.16 c0 2.68 1.56 3.16 3.64 3.68 c0.32 0.08 0.16 1.24 -0.24 1.24 l-8.96 0 c-0.36 0 -0.56 -1.12 -0.24 -1.24 c1.88 -0.52 3.32 -1 3.32 -3.68 l0 -15.84 c0 -2.56 -0.28 -4.24 -1.6 -5.72 c-0.24 -0.32 -0.6 -0.56 -0.6 -0.72 c0 -0.32 0.28 -0.8 0.72 -0.8 l2.8 0 c0.44 0 0.72 0.04 1 0.36 l18.84 20.56 l0 -16.04 c0 -2.8 -1.76 -3.16 -3.64 -3.64 c-0.32 -0.08 -0.16 -1.24 0.24 -1.24 l8.96 0 c0.36 0 0.56 1.16 0.24 1.24 c-1.8 0.48 -3.36 0.84 -3.36 3.64 l0 15.88 c0 2.52 0.08 5.4 0.48 6.84 c0.2 0.64 -0.52 0.8 -1 0.8 z M126.56 40.08 c-0.4 0.04 -0.56 -1.2 -0.24 -1.28 c2.36 -0.6 4.16 -0.96 4.16 -3.92 l0 -17.92 c0 -2.68 -1.64 -3.36 -3.4 -3.8 c-0.32 -0.08 -0.16 -1.28 0.24 -1.24 c2.92 0.24 7.2 0.24 10.16 0.24 c3.64 0 6.36 -0.16 9.52 -0.24 c0.92 0 0.92 0.64 0.72 1.52 l-1 3.8 c-0.12 0.52 -1.08 0.52 -1.24 0 c-0.56 -1.88 -1.84 -3.2 -6.92 -3.2 c-3 0 -3.92 0.72 -3.92 2.92 l0 6.64 c0 1.04 0.52 1.24 1.32 1.24 l0.76 0 c3.56 0 6.24 -0.24 8 -1.92 c0.36 -0.36 1.2 -0.28 0.88 0.48 l-2.36 5.04 c-0.28 0.68 -0.84 0.6 -1.28 0 c-0.96 -1.24 -3.04 -1.72 -5.56 -1.72 l-0.44 0 c-0.8 0 -1.32 0.2 -1.32 1.24 l0 6.92 c0 2.32 1.04 3.08 4.48 3.08 c6.48 0 8.56 -2.6 9.56 -4.28 c0.32 -0.52 1.28 -0.4 1.28 0.36 c0 2.2 -1.68 6 -4.12 6.04 c-1.92 -0.12 -4.48 -0.24 -7.92 -0.24 c-3.68 0 -7.68 -0.12 -11.36 0.24 z"></path></g><g id="SvgjsG2203" featurekey="sloganFeature-0" transform="matrix(0.33842951555058864,0,0,0.33842951555058864,75.86462816150461,198.21986099349508)" fill="url(#SvgjsLinearGradient2220)"><path d="M6.8 6.859999999999999 l0 13.14 l-1.52 0 l0 -13.14 l-4.88 0 l0 -1.44 l11.28 0 l0 1.44 l-4.88 0 z M27.671999999999997 20 l-1.86 0 l-4.32 -5.9 l-2.96 0 l0 5.9 l-1.54 0 l0 -14.58 l5.06 0 c1.72 0 3.1 0.48 3.9 1.28 s1.22 1.8 1.22 2.98 c0 2.46 -1.84 3.88 -4 4.16 z M18.532 6.859999999999999 l0 5.84 l3.38 0 c1.28 0 2.28 -0.36 2.86 -0.94 c0.56 -0.56 0.84 -1.26 0.84 -2.04 c0 -1.44 -0.88 -2.86 -3.66 -2.86 l-3.42 0 z M44.024 20 l-1.6 -3.72 l-7.94 0 l-1.6 3.72 l-1.56 0 l6.28 -14.58 l1.74 0 l6.3 14.58 l-1.62 0 z M41.844 14.879999999999999 l-3.4 -7.88 l-3.38 7.88 l6.78 0 z M56.876000000000005 20.16 c-2 0 -3.86 -0.78 -5.16 -2.06 c-0.64 -0.64 -1.16 -1.42 -1.54 -2.34 c-0.38 -0.94 -0.58 -1.94 -0.58 -3 c0 -1.08 0.2 -2.1 0.6 -3.04 s0.92 -1.74 1.58 -2.38 c1.34 -1.3 3.2 -2.08 5.16 -2.08 c1.54 0 2.94 0.46 3.88 1.12 c0.48 0.32 0.9 0.7 1.28 1.12 c0.74 0.86 1.14 1.72 1.36 2.56 l-1.46 0.52 c-0.12 -0.48 -0.32 -1 -0.86 -1.76 c-0.28 -0.38 -0.58 -0.72 -0.94 -1.02 s-0.82 -0.56 -1.4 -0.76 c-0.58 -0.22 -1.2 -0.32 -1.9 -0.32 c-1.52 0 -2.98 0.62 -4 1.64 c-1.04 1.04 -1.7 2.58 -1.7 4.3 c0 1.14 0.24 2.18 0.74 3.1 c0.48 0.92 1.16 1.64 2.06 2.16 c0.86 0.52 1.84 0.78 2.92 0.78 c1.34 0 2.5 -0.46 3.2 -1.02 c0.36 -0.28 0.68 -0.6 0.96 -1 c0.28 -0.38 0.48 -0.72 0.62 -1 c0.12 -0.28 0.24 -0.58 0.34 -0.88 l1.46 0.52 c-0.22 0.78 -0.6 1.58 -1.34 2.48 c-0.36 0.44 -0.8 0.84 -1.26 1.18 c-0.96 0.68 -2.42 1.18 -4.02 1.18 z M70.668 20 l-1.54 0 l0 -14.58 l1.54 0 l0 6.44 l0.1 0 l6.54 -6.44 l2.12 0 l-7.14 6.98 l7.48 7.6 l-2.16 0 l-6.84 -7.02 l-0.1 0 l0 7.02 z M84.62 20 l0 -14.58 l1.54 0 l0 14.58 l-1.54 0 z M103.47200000000001 5.42 l1.5 0 l0 14.58 l-1.66 0 l-8.7 -12.4 l0 12.4 l-1.52 0 l0 -14.58 l1.78 0 l8.6 12.26 l0 -12.26 z M124.684 9.6 l-1.46 0.52 c-0.18 -0.52 -0.42 -1.06 -1 -1.72 c-0.28 -0.3 -0.6 -0.6 -0.96 -0.84 c-0.72 -0.5 -1.84 -0.86 -3.06 -0.86 c-1.1 0 -2.08 0.26 -2.96 0.82 s-1.56 1.28 -2.04 2.2 c-0.48 0.9 -0.72 1.88 -0.72 2.96 c0 1.64 0.56 3.16 1.52 4.26 c0.98 1.1 2.5 1.78 4.22 1.78 c1.3 0 2.54 -0.42 3.48 -1.14 s1.58 -1.88 1.66 -3.22 l-6.08 0 l0 -1.42 l7.72 0 l0 0.56 c0 1.84 -0.66 3.5 -1.8 4.7 c-1.16 1.2 -2.94 1.94 -5 1.94 c-2.18 0 -4.08 -0.8 -5.32 -2.12 s-1.98 -3.2 -1.98 -5.26 c0 -1.38 0.32 -2.66 0.96 -3.8 s1.52 -2.04 2.64 -2.7 s2.38 -0.98 3.74 -0.98 c1.72 0 3.24 0.48 4.28 1.32 c1.06 0.82 1.76 1.82 2.16 3 z M143.64800000000002 6.859999999999999 l0 13.14 l-1.52 0 l0 -13.14 l-4.88 0 l0 -1.44 l11.28 0 l0 1.44 l-4.88 0 z M163.68 20 l0 -6.68 l-8.3 0 l0 6.68 l-1.54 0 l0 -14.58 l1.54 0 l0 6.46 l8.3 0 l0 -6.46 l1.54 0 l0 14.58 l-1.54 0 z M172.15200000000004 20 l0 -14.58 l9.12 0 l0 1.42 l-7.58 0 l0 5.04 l6.94 0 l0 1.42 l-6.94 0 l0 5.28 l7.66 0 l0 1.42 l-9.2 0 z M199.53600000000006 20.14 c-1.38 0 -2.7 -0.52 -3.56 -1.28 c-0.9 -0.78 -1.48 -1.82 -1.6 -2.84 l1.44 -0.4 c0.16 0.86 0.6 1.58 1.32 2.18 c0.7 0.6 1.5 0.9 2.4 0.9 c0.84 0 1.62 -0.2 2.24 -0.64 c0.62 -0.42 1.02 -1.14 1.02 -2.02 c0 -1.02 -0.54 -1.68 -1.22 -2.08 c-0.48 -0.28 -0.9 -0.4 -1.38 -0.5 l-1.92 -0.38 c-0.4 -0.08 -0.82 -0.22 -1.28 -0.42 c-0.46 -0.22 -0.86 -0.48 -1.2 -0.82 c-0.68 -0.66 -1.02 -1.5 -1.02 -2.52 c0 -0.8 0.22 -1.52 0.66 -2.14 c0.44 -0.64 1 -1.1 1.7 -1.44 c0.7 -0.32 1.44 -0.48 2.26 -0.48 c3.14 0 4.52 1.94 4.82 3.5 l-1.4 0.44 c-0.24 -1.04 -1.18 -2.52 -3.44 -2.52 c-1.56 -0.04 -3.08 1.06 -3.06 2.58 c0 1.12 0.7 2.02 2.12 2.3 l1.84 0.36 c1.24 0.24 2.2 0.66 2.84 1.28 c0.44 0.4 0.76 0.86 0.96 1.34 c0.2 0.5 0.3 0.94 0.3 1.34 c0.02 2.56 -2.14 4.32 -4.84 4.26 z M215.10800000000006 6.859999999999999 l0 13.14 l-1.52 0 l0 -13.14 l-4.88 0 l0 -1.44 l11.28 0 l0 1.44 l-4.88 0 z M236.04000000000005 20 l-1.6 -3.72 l-7.94 0 l-1.6 3.72 l-1.56 0 l6.28 -14.58 l1.74 0 l6.3 14.58 l-1.62 0 z M233.86000000000007 14.879999999999999 l-3.4 -7.88 l-3.38 7.88 l6.78 0 z M247.41200000000006 6.859999999999999 l0 13.14 l-1.52 0 l0 -13.14 l-4.88 0 l0 -1.44 l11.28 0 l0 1.44 l-4.88 0 z M257.60400000000004 20 l0 -14.58 l9.12 0 l0 1.42 l-7.58 0 l0 5.04 l6.94 0 l0 1.42 l-6.94 0 l0 5.28 l7.66 0 l0 1.42 l-9.2 0 z M294.5880000000001 12.68 c0 1.38 -0.32 2.64 -0.94 3.78 c-0.64 1.14 -1.52 2.04 -2.64 2.7 c-1.14 0.66 -2.38 1 -3.78 1 c-1.02 0 -1.98 -0.2 -2.9 -0.58 c-0.9 -0.38 -1.68 -0.9 -2.32 -1.58 c-0.64 -0.64 -1.14 -1.42 -1.52 -2.34 c-0.36 -0.92 -0.56 -1.88 -0.56 -2.9 c0 -1.38 0.32 -2.64 0.96 -3.78 c0.62 -1.14 1.5 -2.06 2.64 -2.72 c1.12 -0.66 2.38 -0.98 3.76 -0.98 c1.02 0 1.98 0.18 2.9 0.56 c0.9 0.4 1.68 0.92 2.32 1.56 c0.64 0.68 1.16 1.46 1.52 2.36 c0.38 0.92 0.56 1.88 0.56 2.92 z M293.00800000000004 12.76 c0 -1.64 -0.6 -3.16 -1.6 -4.26 s-2.5 -1.8 -4.18 -1.8 c-1.08 0 -2.06 0.28 -2.94 0.8 c-0.88 0.56 -1.56 1.28 -2.04 2.18 c-0.48 0.92 -0.72 1.92 -0.72 3 c0 1.62 0.6 3.16 1.6 4.24 c1 1.1 2.5 1.8 4.16 1.8 c1.08 0 2.06 -0.28 2.94 -0.82 c0.9 -0.52 1.58 -1.26 2.06 -2.16 s0.72 -1.9 0.72 -2.98 z M302.0400000000001 6.859999999999999 l0 5.24 l6.86 0 l0 1.4 l-6.86 0 l0 6.5 l-1.54 0 l0 -14.58 l9.04 0 l0 1.44 l-7.5 0 z M322.264 20 l0 -14.58 l4.34 0 c1.12 0 2.16 0.18 3.12 0.56 c0.96 0.36 1.78 0.88 2.44 1.52 c1.34 1.3 2.14 3.14 2.14 5.18 c0 1.06 -0.2 2.06 -0.6 2.98 s-0.96 1.68 -1.64 2.32 c-1.38 1.26 -3.34 2.02 -5.46 2.02 l-4.34 0 z M323.80400000000003 6.859999999999999 l0 11.7 l2.74 0 c1.22 0 2.3 -0.26 3.22 -0.76 c0.94 -0.5 1.68 -1.18 2.18 -2.06 c0.52 -0.88 0.78 -1.9 0.78 -3.02 c0 -1.66 -0.62 -3.14 -1.68 -4.2 c-1.04 -1.04 -2.66 -1.66 -4.5 -1.66 l-2.74 0 z M340.216 20 l0 -14.58 l1.54 0 l0 14.58 l-1.54 0 z M352.728 20.14 c-1.38 0 -2.7 -0.52 -3.56 -1.28 c-0.9 -0.78 -1.48 -1.82 -1.6 -2.84 l1.44 -0.4 c0.16 0.86 0.6 1.58 1.32 2.18 c0.7 0.6 1.5 0.9 2.4 0.9 c0.84 0 1.62 -0.2 2.24 -0.64 c0.62 -0.42 1.02 -1.14 1.02 -2.02 c0 -1.02 -0.54 -1.68 -1.22 -2.08 c-0.48 -0.28 -0.9 -0.4 -1.38 -0.5 l-1.92 -0.38 c-0.4 -0.08 -0.82 -0.22 -1.28 -0.42 c-0.46 -0.22 -0.86 -0.48 -1.2 -0.82 c-0.68 -0.66 -1.02 -1.5 -1.02 -2.52 c0 -0.8 0.22 -1.52 0.66 -2.14 c0.44 -0.64 1 -1.1 1.7 -1.44 c0.7 -0.32 1.44 -0.48 2.26 -0.48 c3.14 0 4.52 1.94 4.82 3.5 l-1.4 0.44 c-0.24 -1.04 -1.18 -2.52 -3.44 -2.52 c-1.56 -0.04 -3.08 1.06 -3.06 2.58 c0 1.12 0.7 2.02 2.12 2.3 l1.84 0.36 c1.24 0.24 2.2 0.66 2.84 1.28 c0.44 0.4 0.76 0.86 0.96 1.34 c0.2 0.5 0.3 0.94 0.3 1.34 c0.02 2.56 -2.14 4.32 -4.84 4.26 z M369.78 20.16 c-2 0 -3.86 -0.78 -5.16 -2.06 c-0.64 -0.64 -1.16 -1.42 -1.54 -2.34 c-0.38 -0.94 -0.58 -1.94 -0.58 -3 c0 -1.08 0.2 -2.1 0.6 -3.04 s0.92 -1.74 1.58 -2.38 c1.34 -1.3 3.2 -2.08 5.16 -2.08 c1.54 0 2.94 0.46 3.88 1.12 c0.48 0.32 0.9 0.7 1.28 1.12 c0.74 0.86 1.14 1.72 1.36 2.56 l-1.46 0.52 c-0.12 -0.48 -0.32 -1 -0.86 -1.76 c-0.28 -0.38 -0.58 -0.72 -0.94 -1.02 s-0.82 -0.56 -1.4 -0.76 c-0.58 -0.22 -1.2 -0.32 -1.9 -0.32 c-1.52 0 -2.98 0.62 -4 1.64 c-1.04 1.04 -1.7 2.58 -1.7 4.3 c0 1.14 0.24 2.18 0.74 3.1 c0.48 0.92 1.16 1.64 2.06 2.16 c0.86 0.52 1.84 0.78 2.92 0.78 c1.34 0 2.5 -0.46 3.2 -1.02 c0.36 -0.28 0.68 -0.6 0.96 -1 c0.28 -0.38 0.48 -0.72 0.62 -1 c0.12 -0.28 0.24 -0.58 0.34 -0.88 l1.46 0.52 c-0.22 0.78 -0.6 1.58 -1.34 2.48 c-0.36 0.44 -0.8 0.84 -1.26 1.18 c-0.96 0.68 -2.42 1.18 -4.02 1.18 z M382.032 20 l0 -14.58 l1.54 0 l0 13.14 l6.92 0 l0 1.44 l-8.46 0 z M409.42400000000004 12.68 c0 1.38 -0.32 2.64 -0.94 3.78 c-0.64 1.14 -1.52 2.04 -2.64 2.7 c-1.14 0.66 -2.38 1 -3.78 1 c-1.02 0 -1.98 -0.2 -2.9 -0.58 c-0.9 -0.38 -1.68 -0.9 -2.32 -1.58 c-0.64 -0.64 -1.14 -1.42 -1.52 -2.34 c-0.36 -0.92 -0.56 -1.88 -0.56 -2.9 c0 -1.38 0.32 -2.64 0.96 -3.78 c0.62 -1.14 1.5 -2.06 2.64 -2.72 c1.12 -0.66 2.38 -0.98 3.76 -0.98 c1.02 0 1.98 0.18 2.9 0.56 c0.9 0.4 1.68 0.92 2.32 1.56 c0.64 0.68 1.16 1.46 1.52 2.36 c0.38 0.92 0.56 1.88 0.56 2.92 z M407.844 12.76 c0 -1.64 -0.6 -3.16 -1.6 -4.26 s-2.5 -1.8 -4.18 -1.8 c-1.08 0 -2.06 0.28 -2.94 0.8 c-0.88 0.56 -1.56 1.28 -2.04 2.18 c-0.48 0.92 -0.72 1.92 -0.72 3 c0 1.62 0.6 3.16 1.6 4.24 c1 1.1 2.5 1.8 4.16 1.8 c1.08 0 2.06 -0.28 2.94 -0.82 c0.9 -0.52 1.58 -1.26 2.06 -2.16 s0.72 -1.9 0.72 -2.98 z M419.37600000000003 20.14 c-1.38 0 -2.7 -0.52 -3.56 -1.28 c-0.9 -0.78 -1.48 -1.82 -1.6 -2.84 l1.44 -0.4 c0.16 0.86 0.6 1.58 1.32 2.18 c0.7 0.6 1.5 0.9 2.4 0.9 c0.84 0 1.62 -0.2 2.24 -0.64 c0.62 -0.42 1.02 -1.14 1.02 -2.02 c0 -1.02 -0.54 -1.68 -1.22 -2.08 c-0.48 -0.28 -0.9 -0.4 -1.38 -0.5 l-1.92 -0.38 c-0.4 -0.08 -0.82 -0.22 -1.28 -0.42 c-0.46 -0.22 -0.86 -0.48 -1.2 -0.82 c-0.68 -0.66 -1.02 -1.5 -1.02 -2.52 c0 -0.8 0.22 -1.52 0.66 -2.14 c0.44 -0.64 1 -1.1 1.7 -1.44 c0.7 -0.32 1.44 -0.48 2.26 -0.48 c3.14 0 4.52 1.94 4.82 3.5 l-1.4 0.44 c-0.24 -1.04 -1.18 -2.52 -3.44 -2.52 c-1.56 -0.04 -3.08 1.06 -3.06 2.58 c0 1.12 0.7 2.02 2.12 2.3 l1.84 0.36 c1.24 0.24 2.2 0.66 2.84 1.28 c0.44 0.4 0.76 0.86 0.96 1.34 c0.2 0.5 0.3 0.94 0.3 1.34 c0.02 2.56 -2.14 4.32 -4.84 4.26 z M439.408 5.42 l1.54 0 l0 8.88 c0 1.84 -0.5 3.28 -1.44 4.3 c-0.96 1.02 -2.32 1.54 -4.06 1.54 c-1.72 0 -3.08 -0.52 -4.02 -1.56 c-0.96 -1.04 -1.44 -2.42 -1.44 -4.18 l0 -8.98 l1.52 0 l0 8.9 c0 1.54 0.44 2.72 1.16 3.38 c0.74 0.68 1.68 1 2.86 1 c1.24 0 2.2 -0.36 2.88 -1.12 c0.66 -0.76 1 -1.8 1 -3.18 l0 -8.98 z M458.36 20 l-1.86 0 l-4.32 -5.9 l-2.96 0 l0 5.9 l-1.54 0 l0 -14.58 l5.06 0 c1.72 0 3.1 0.48 3.9 1.28 s1.22 1.8 1.22 2.98 c0 2.46 -1.84 3.88 -4 4.16 z M449.22 6.859999999999999 l0 5.84 l3.38 0 c1.28 0 2.28 -0.36 2.86 -0.94 c0.56 -0.56 0.84 -1.26 0.84 -2.04 c0 -1.44 -0.88 -2.86 -3.66 -2.86 l-3.42 0 z M463.972 20 l0 -14.58 l9.12 0 l0 1.42 l-7.58 0 l0 5.04 l6.94 0 l0 1.42 l-6.94 0 l0 5.28 l7.66 0 l0 1.42 l-9.2 0 z"></path></g></svg>